<?xml version="1.0" encoding="UTF-8"?>
<svg viewBox="0 0 416 192" xmlns="http://www.w3.org/2000/svg">
	<g transform="translate(32 160)">
		<g>
			<path fill="none" stroke="#999" d="M-8 -32h112M-8 -64h112M-8 -96h112M-8 -128h112"/>
			<path fill="none" stroke="#999" d="M0 8v-144M32 8v-144M64 8v-144M96 8v-144"/>
			<g transform="translate(128 0)">
				<path fill="none" stroke="#999" d="M-8 -32h144M-8 -64h144M-8 -96h144M-8 -128h144"/>
				<path fill="none" stroke="#999" d="M0 8v-144M32 8v-144M64 8v-144M96 8v-144M128 8v-144"/>
			</g>
			<path fill="none" stroke="#090" d="M-16 16v-160M112 16v-160M272 16v-160"/>
			<path fill="none" stroke="#090" d="M-16 0h288"/>
		</g>
		<g fill="#99f" opacity="0.5">
			<path d="M0 -20v-88l20 -20h56l20 20v88l-20 20h-56l-20 -20zm34 -14h28v-60h-28v60z"/>
			<path transform="translate(128 0)" d="M0 0v-128h24l40 40l40 -40h24v128h-34v-70l-30 30l-30 -30v70h-34z"/>
		</g>
		<g>
			<g transform="translate(16 -136)">
				<path fill="none" stroke="#000" d="M-16 7a3 3 0 0 1 3 -3h10a3 3 0 0 0 3 -3a3 3 0 0 0 3 3h10a3 3 0 0 1 3 3"/>
				<text x="0" y="0" font-family="sans-serif" font-size="8" text-anchor="middle">32</text>
			</g>
			<g transform="translate(-8 -112)">
				<path fill="none" stroke="#000" d="M7 16a3 3 0 0 1 -3 -3v-10a3 3 0 0 0 -3 -3a3 3 0 0 0 3 -3v-10a3 3 0 0 1 3 -3"/>
				<text x="0" y="0" font-family="sans-serif" font-size="8" text-anchor="end" dominant-baseline="middle">32</text>
			</g>
			<g transform="translate(-8 -42)">
				<path fill="none" stroke="#900" d="M8 -7h-16m4 -3l-4 3v5m0 -10v5l4 3m8 0l4 -3v-5m0 10v-5l-4 -3"/>
				<text x="0" y="0" fill="#900" font-family="sans-serif" font-size="8" text-anchor="middle" dominant-baseline="hanging">16</text>
			</g>
			<g transform="translate(48 8)">
				<path fill="none" stroke="#000" d="M48 -7a3 3 0 0 1 -3 3h-42a3 3 0 0 0 -3 3a3 3 0 0 0 -3 -3h-42a3 3 0 0 1 -3 -3"/>
				<text x="0" y="0" font-family="sans-serif" font-size="8" text-anchor="middle" dominant-baseline="hanging">96</text>
			</g>
			<g transform="translate(72 -64)">
				<path fill="none" stroke="#000" d="M-7 -64a3 3 0 0 1 3 3v58a3 3 0 0 0 3 3a3 3 0 0 0 -3 3v58a3 3 0 0 1 -3 3"/>
				<text x="0" y="0" font-family="sans-serif" font-size="8" text-anchor="start" dominant-baseline="middle">128</text>
			</g>
			<g transform="translate(192 8)">
				<path fill="none" stroke="#000" d="M64 -7a3 3 0 0 1 -3 3h-58a3 3 0 0 0 -3 3a3 3 0 0 0 -3 -3h-58a3 3 0 0 1 -3 -3"/>
				<text x="0" y="0" font-family="sans-serif" font-size="8" text-anchor="middle" dominant-baseline="hanging">128</text>
			</g>
			<g transform="translate(104 -40)">
				<path fill="none" stroke="#900" d="M8 -7h-16m4 -3l-4 3v5m0 -10v5l4 3m8 0l4 -3v-5m0 10v-5l-4 -3"/>
				<text x="0" y="0" fill="#900" font-family="sans-serif" font-size="8" text-anchor="middle" dominant-baseline="hanging">16</text>
			</g>
			<g transform="translate(120 -44)">
				<path fill="none" stroke="#900" d="M8 -7h-16m4 -3l-4 3v5m0 -10v5l4 3m8 0l4 -3v-5m0 10v-5l-4 -3"/>
				<text x="0" y="0" fill="#900" font-family="sans-serif" font-size="8" text-anchor="middle" dominant-baseline="hanging">16</text>
			</g>
			<g transform="translate(264 -42)">
				<path fill="none" stroke="#900" d="M8 -7h-16m4 -3l-4 3v5m0 -10v5l4 3m8 0l4 -3v-5m0 10v-5l-4 -3"/>
				<text x="0" y="0" fill="#900" font-family="sans-serif" font-size="8" text-anchor="middle" dominant-baseline="hanging">16</text>
			</g>
		</g>
	</g>
</svg>
