<?xml version="1.0" encoding="UTF-8"?>
<svg viewBox="0 0 416 192" xmlns="http://www.w3.org/2000/svg">
	<g transform="translate(32 160)">
		<g>
			<path fill="none" stroke="#ccc" d="M46 -124a34 34 0 0 1 46 46M62 -94l24 -24"/>
			<path fill="none" stroke="#999" d="M-8 -34h112M-8 -94h126M-8 -128h112"/>
			<path fill="none" stroke="#999" d="M0 8v-144M34 8v-144M62 8v-158M96 8v-144"/>
			<path fill="none" stroke="#999" d="M54 -150l64 64M30 -126l64 64"/>
			<g transform="translate(128 0)">
				<path fill="none" stroke="#ccc" d="M46 -90a34 34 0 0 1 46 46M62 -60l30.4 -15.2"/>
				<path fill="none" stroke="#999" d="M-8 -26h112M-8 -60h112M-8 -128h112"/>
				<path fill="none" stroke="#999" d="M0 8v-144M34 8v-144M62 8v-144M96 8v-144"/>
				<path fill="none" stroke="#999" d="M58 -144l46 92M29 -126l46 92"/>
			</g>
			<g transform="translate(256 0)">
				<path fill="none" stroke="#999" d="M-8 -34h112M-8 -47h112M-8 -81h112M-8 -94h112M-8 -128h112"/>
				<path fill="none" stroke="#999" d="M0 8v-144M34 8v-144M96 8v-144"/>
			</g>
			<path fill="none" stroke="#090" d="M-16 0h384"/>
		</g>
		<g fill="#99f" opacity="0.5">
			<path d="M0 -20v-88l20 -20h56l20 20v88l-20 20h-56l-20 -20zm34 -14h28v-60h-28v60z"/>
			<path transform="translate(128 0)" d="M0 0v-68l30 -60h36l30 60v68h-34v-26h-28v26h-34zm34 -60h28l-14 -28l-14 28z"/>
			<path transform="translate(256 0)" d="M0 0v-128h82v34h-48v13h34v34h-34v13h62v34h-96z"/>
		</g>
		<g>
			<g transform="translate(26 -111)">
				<path fill="none" stroke="#000" d="M7 17a3 3 0 0 1 -3 -3v-11a3 3 0 0 0 -3 -3a3 3 0 0 0 3 -3v-11a3 3 0 0 1 3 -3"/>
				<text x="0" y="0" font-family="sans-serif" font-size="8" text-anchor="end" dominant-baseline="middle">34</text>
			</g>
			<g transform="translate(17 -58)">
				<path fill="none" stroke="#000" d="M17 -7a3 3 0 0 1 -3 3h-11a3 3 0 0 0 -3 3a3 3 0 0 0 -3 -3h-11a3 3 0 0 1 -3 -3"/>
				<text x="0" y="0" font-family="sans-serif" font-size="8" text-anchor="middle" dominant-baseline="hanging">34</text>
			</g>
			<g transform="translate(54 -118)">
				<path fill="none" stroke="#000" d="M7 24a3 3 0 0 1 -3 -3v-18a3 3 0 0 0 -3 -3a3 3 0 0 0 3 -3v-18a3 3 0 0 1 3 -3"/>
				<text x="0" y="0" font-family="sans-serif" font-size="8" text-anchor="end" dominant-baseline="middle">48</text>
			</g>
			<g transform="translate(69 -136)">
				<path fill="none" stroke="#000" d="M-7 7a3 3 0 0 1 3 -3h1a3 3 0 0 0 3 -3a3 3 0 0 0 3 3h1a3 3 0 0 1 3 3"/>
				<text x="0" y="0" font-family="sans-serif" font-size="8" text-anchor="middle">14</text>
			</g>
			<g transform="translate(86 -136)">
				<path fill="none" stroke="#000" d="M-10 7a3 3 0 0 1 3 -3h4a3 3 0 0 0 3 -3a3 3 0 0 0 3 3h4a3 3 0 0 1 3 3"/>
				<text x="0" y="0" font-family="sans-serif" font-size="8" text-anchor="middle">20</text>
			</g>
			<g transform="translate(104 -118)">
				<path fill="none" stroke="#000" d="M-7 -10a3 3 0 0 1 3 3v4a3 3 0 0 0 3 3a3 3 0 0 0 -3 3v4a3 3 0 0 1 -3 3"/>
				<text x="0" y="0" font-family="sans-serif" font-size="8" text-anchor="start" dominant-baseline="middle">20</text>
			</g>
			<g transform="translate(88 -101)">
				<path fill="none" stroke="#000" d="M7 7a3 3 0 0 1 -3 -3v-1a3 3 0 0 0 -3 -3a3 3 0 0 0 3 -3v-1a3 3 0 0 1 3 -3"/>
				<text x="0" y="0" font-family="sans-serif" font-size="8" text-anchor="end" dominant-baseline="middle">14</text>
			</g>
			<g transform="translate(103 -102)">
				<path fill="none" stroke="#000" d="M-7 7a3 3 0 0 1 3 -3h1a3 3 0 0 0 3 -3a3 3 0 0 0 3 3h1a3 3 0 0 1 3 3"/>
				<text x="0" y="0" font-family="sans-serif" font-size="8" text-anchor="middle">14</text>
			</g>
			<g transform="translate(86 -86)">
				<path fill="none" stroke="#000" d="M24 -7a3 3 0 0 1 -3 3h-18a3 3 0 0 0 -3 3a3 3 0 0 0 -3 -3h-18a3 3 0 0 1 -3 -3"/>
				<text x="0" y="0" font-family="sans-serif" font-size="8" text-anchor="middle" dominant-baseline="hanging">48</text>
			</g>
			<g transform="translate(79 -58)">
				<path fill="none" stroke="#000" d="M17 -7a3 3 0 0 1 -3 3h-11a3 3 0 0 0 -3 3a3 3 0 0 0 -3 -3h-11a3 3 0 0 1 -3 -3"/>
				<text x="0" y="0" font-family="sans-serif" font-size="8" text-anchor="middle" dominant-baseline="hanging">34</text>
			</g>
			<g transform="translate(45 -64)">
				<path fill="none" stroke="#900" d="M-4 30v-60m3 4l-3 -4h-5m10 0h-5l-3 4m0 52l3 4h5m-10 0h5l3 -4"/>
				<text x="0" y="0" fill="#900" font-family="sans-serif" font-size="8" text-anchor="start" dominant-baseline="middle">60</text>
			</g>
			<g transform="translate(48 -32)">
				<path fill="none" stroke="#900" d="M14 -7h-28m4 -3l-4 3v5m0 -10v5l4 3m20 0l4 -3v-5m0 10v-5l-4 -3"/>
				<text x="0" y="0" fill="#900" font-family="sans-serif" font-size="8" text-anchor="middle" dominant-baseline="hanging">28</text>
			</g>
			<g transform="translate(145 -24)">
				<path fill="none" stroke="#000" d="M17 -7a3 3 0 0 1 -3 3h-11a3 3 0 0 0 -3 3a3 3 0 0 0 -3 -3h-11a3 3 0 0 1 -3 -3"/>
				<text x="0" y="0" font-family="sans-serif" font-size="8" text-anchor="middle" dominant-baseline="hanging">34</text>
			</g>
			<g transform="translate(236 -64)">
				<path fill="none" stroke="#000" d="M-7 -4a3 2 0 0 1 3 2a3 2 0 0 0 3 2a3 2 0 0 0 -3 2a3 2 0 0 1 -3 2"/>
				<text x="0" y="0" font-family="sans-serif" font-size="8" text-anchor="start" dominant-baseline="middle">8</text>
			</g>
			<g transform="translate(209 -52)">
				<path fill="none" stroke="#000" d="M19 -7a3 3 0 0 1 -3 3h-13a3 3 0 0 0 -3 3a3 3 0 0 0 -3 -3h-13a3 3 0 0 1 -3 -3"/>
				<text x="0" y="0" font-family="sans-serif" font-size="8" text-anchor="middle" dominant-baseline="hanging">38</text>
			</g>
			<g transform="translate(226 -44)">
				<path fill="none" stroke="#000" d="M2 -7a1 3 0 0 1 -1 3a1 3 0 0 0 -1 3a1 3 0 0 0 -1 -3a1 3 0 0 1 -1 -3"/>
				<text x="0" y="0" font-family="sans-serif" font-size="8" text-anchor="middle" dominant-baseline="hanging">4</text>
			</g>
			<g transform="translate(207 -24)">
				<path fill="none" stroke="#000" d="M17 -7a3 3 0 0 1 -3 3h-11a3 3 0 0 0 -3 3a3 3 0 0 0 -3 -3h-11a3 3 0 0 1 -3 -3"/>
				<text x="0" y="0" font-family="sans-serif" font-size="8" text-anchor="middle" dominant-baseline="hanging">34</text>
			</g>
			<g transform="translate(315 -111)">
				<path fill="none" stroke="#000" d="M-7 -17a3 3 0 0 1 3 3v11a3 3 0 0 0 3 3a3 3 0 0 0 -3 3v11a3 3 0 0 1 -3 3"/>
				<text x="0" y="0" font-family="sans-serif" font-size="8" text-anchor="start" dominant-baseline="middle">34</text>
			</g>
			<g transform="translate(305 -87.5)">
				<path fill="none" stroke="#900" d="M-7 6.5v-13m3 4l-3 -4h-5m10 0h-5l-3 4m0 5l3 4h5m-10 0h5l3 -4"/>
				<text x="0" y="0" fill="#900" font-family="sans-serif" font-size="8" text-anchor="start" dominant-baseline="middle">13</text>
			</g>
			<g transform="translate(315 -64)">
				<path fill="none" stroke="#000" d="M-7 -17a3 3 0 0 1 3 3v11a3 3 0 0 0 3 3a3 3 0 0 0 -3 3v11a3 3 0 0 1 -3 3"/>
				<text x="0" y="0" font-family="sans-serif" font-size="8" text-anchor="start" dominant-baseline="middle">34</text>
			</g>
			<g transform="translate(305 -40.5)">
				<path fill="none" stroke="#900" d="M-7 6.5v-13m3 4l-3 -4h-5m10 0h-5l-3 4m0 5l3 4h5m-10 0h5l3 -4"/>
				<text x="0" y="0" fill="#900" font-family="sans-serif" font-size="8" text-anchor="start" dominant-baseline="middle">13</text>
			</g>
			<g transform="translate(315 -17)">
				<path fill="none" stroke="#000" d="M-7 -17a3 3 0 0 1 3 3v11a3 3 0 0 0 3 3a3 3 0 0 0 -3 3v11a3 3 0 0 1 -3 3"/>
				<text x="0" y="0" font-family="sans-serif" font-size="8" text-anchor="start" dominant-baseline="middle">34</text>
			</g>
		</g>
	</g>
</svg>
