<?xml version="1.0" encoding="UTF-8"?>
<svg xmlns="http://www.w3.org/2000/svg" xmlns:svg="http://www.w3.org/2000/svg" viewBox="0 0 17600 6144">
  <g transform="translate(0 1464) scale(1 -1)">
	<g transform="translate(0 0)"><g transform="translate(0 0)"><path d="M1012 0L176 0L176 1408L704 1408L1232 880L1232 220L1012 0M550 1034L550 374L858 374L858 726L550 1034"/></g><g transform="translate(1408 0)"><path d="M1232 0L176 0L176 1408L1078 1408L1078 1034L550 1034L550 891L924 891L924 517L550 517L550 374L1232 374L1232 0"/></g><g transform="translate(2816 0)"><path d="M1232 0L176 0L176 374L517 374L517 1034L330 1034L330 1408L1078 1408L1078 1034L891 1034L891 374L1232 374L1232 0"/></g><g transform="translate(4224 0)"><path d="M550 0L176 0L176 1408L1012 1408L1232 1188L1232 572L1012 352L550 352L550 0M550 1034L550 726L858 726L858 1034L550 1034"/></g><g transform="translate(5632 0)"><path d="M550 0L176 0L176 1408L550 1408L550 891L858 891L858 1408L1232 1408L1232 0L858 0L858 517L550 517L550 0"/></g><g transform="translate(7040 0)"><path d="M396 0L176 220L176 1188L396 1408L1012 1408L1232 1188L1232 220L1012 0L396 0M550 1034L550 374L858 374L858 1034L550 1034"/></g><g transform="translate(8448 0)"><path d="M1012 0L176 0L176 1408L1012 1408L1232 1188L1232 979L1122 869L1232 759L1232 220L1012 0M550 704L550 374L858 374L858 704L550 704M550 1034L550 726L858 1034L550 1034"/></g><g transform="translate(9856 0)"><path d="M396 0L176 220L176 1408L550 1408L550 374L858 374L858 1408L1232 1408L1232 220L1012 0L396 0"/></g><g transform="translate(11264 0)"><path d="M1012 0L176 0L176 374L858 374L858 517L396 517L176 737L176 1188L396 1408L1232 1408L1232 1111L1155 1034L550 1034L550 891L1012 891L1232 671L1232 220L1012 0"/></g><g transform="translate(12672 0)"/><g transform="translate(14080 0)"><path d="M1232 0L176 0L176 374L693 374L693 374L693 880L583 770L319 1034L693 1408L1067 1408L1067 374L1232 374L1232 0"/></g><g transform="translate(15488 0)"><path d="M550 0L176 0L176 374L550 374L550 0"/></g><g transform="translate(16192 0)"><path d="M396 0L176 220L176 374L858 374L528 704L858 1034L176 1034L176 1408L1012 1408L1232 1188L1232 880L1056 704L1232 528L1232 220L1012 0L396 0"/></g></g>
	<g transform="translate(0 -2048)"><g transform="translate(0 0)"><path d="M1232 0L176 0L176 374L242 374L759 1408L1177 1408L1177 374L1232 374L1232 0M803 660L660 374L803 374L803 660"/></g><g transform="translate(1408 0)"><g><path d="M1232 0L176 0L176 1408L1078 1408L1078 1034L550 1034L550 891L924 891L924 517L550 517L550 374L1232 374L1232 0"/></g></g><g transform="translate(2816 0)"><path d="M550 0L176 0L176 1408L550 1408L550 814L858 1122L858 1408L1232 1408L1232 0L858 0L858 594L550 286L550 0"/></g><g transform="translate(4224 0)"><path d="M396 0L176 220L176 1133L396 1353L693 1353L693 1540L1067 1540L1067 1353L1364 1353L1584 1133L1584 220L1364 0L1067 0L1067 -187L693 -187L693 0L396 0M550 979L550 374L693 374L693 979L550 979M1067 979L1067 374L1210 374L1210 979L1067 979"/></g><g transform="translate(5984 0)"><g><path d="M396 0L176 220L176 1188L396 1408L1012 1408L1232 1188L1232 220L1012 0L396 0M550 1034L550 374L858 374L858 1034L550 1034"/></g></g><g transform="translate(7392 0)"><path d="M1012 0L176 0L176 1408L1122 1408L1122 1034L550 1034L550 891L1012 891L1232 671L1232 220L1012 0M550 517L550 374L858 374L858 517L550 517"/></g></g>
	<g transform="translate(0 -4096)"><g transform="translate(0 0)"><path d="M1232 0L176 0L176 462L649 1408L759 1408L1232 462L1232 0M704 682L550 374L858 374L704 682"/></g><g transform="translate(1408 0)"><path d="M550 0L176 0L176 1408L550 1408L550 968L858 968L858 1408L1232 1408L1232 0L858 0L858 594L550 594L550 0"/></g><g transform="translate(2816 0)"><g transform="translate(352 0)"><g><path d="M1232 0L176 0L176 374L517 374L517 1034L330 1034L330 1408L1078 1408L1078 1034L891 1034L891 374L1232 374L1232 0"/></g></g><g transform="translate(-88 0)"><path d="M484 1144L220 880L220 1540L484 1540L484 1144"/></g></g><g transform="translate(4510 0)"><path d="M396 220L176 440L176 968L396 1188L517 1188L517 1408L891 1408L891 1188L1012 1188L1232 968L1232 440L1012 220L891 220L891 0L517 0L517 220L396 220M550 814L550 594L858 594L858 814L550 814"/></g><g transform="translate(5918 0)"><path d="M396 0L176 220L176 1100L484 1408L924 1408L1232 1100L1232 220L1012 0L396 0M550 946L550 374L858 374L858 946L770 1034L638 1034L550 946"/></g><g transform="translate(7326 0)"><path d="M1012 0L176 0L176 1408L1012 1408L1232 1188L1232 924L1111 803L1232 682L1232 220L1012 0M550 528L550 374L858 374L858 528L550 528M550 1034L550 770L814 1034L550 1034"/></g><g transform="translate(8734 0)"><path d="M396 0L176 220L176 1100L484 1408L924 1408L1232 1100L1232 220L1012 0L396 0M550 946L550 374L858 374L858 946L770 1034L638 1034L550 946"/></g><g transform="translate(10142 0)"><path d="M1232 0L176 0L176 374L506 704L176 1034L176 1408L1232 1408L1232 1034L704 1034L1034 704L704 374L1232 374L1232 0"/></g></g>
</g>
</svg>
