<?xml version="1.0" encoding="UTF-8"?>
<svg xmlns="http://www.w3.org/2000/svg" xmlns:svg="http://www.w3.org/2000/svg" viewBox="0 0 17600 10240" style="background-color:#ddeeff;">
  <g transform="translate(0 1464) scale(1 -1)">
	<g transform="translate(00)"><g transform="translate(0 0)"><path d="M1012 0L176 0L176 1408L704 1408L1232 880L1232 220L1012 0M550 1034L550 374L858 374L858 726L550 1034"/></g><g transform="translate(1408 0)"><path d="M1232 0L176 0L176 1408L1078 1408L1078 1034L550 1034L550 891L924 891L924 517L550 517L550 374L1232 374L1232 0"/></g><g transform="translate(2816 0)"><path d="M1232 0L176 0L176 374L517 374L517 1034L330 1034L330 1408L1078 1408L1078 1034L891 1034L891 374L1232 374L1232 0"/></g><g transform="translate(4224 0)"><path d="M550 0L176 0L176 1408L1012 1408L1232 1188L1232 572L1012 352L550 352L550 0M550 1034L550 726L858 726L858 1034L550 1034"/></g><g transform="translate(5632 0)"><path d="M550 0L176 0L176 1408L550 1408L550 891L858 891L858 1408L1232 1408L1232 0L858 0L858 517L550 517L550 0"/></g><g transform="translate(7040 0)"><path d="M396 0L176 220L176 1188L396 1408L1012 1408L1232 1188L1232 220L1012 0L396 0M550 1034L550 374L858 374L858 1034L550 1034"/></g><g transform="translate(8448 0)"><path d="M1012 0L176 0L176 1408L1012 1408L1232 1188L1232 979L1122 869L1232 759L1232 220L1012 0M550 704L550 374L858 374L858 704L550 704M550 1034L550 726L858 1034L550 1034"/></g><g transform="translate(9856 0)"><path d="M396 0L176 220L176 1408L550 1408L550 374L858 374L858 1408L1232 1408L1232 220L1012 0L396 0"/></g><g transform="translate(11264 0)"><path d="M1012 0L176 0L176 374L858 374L858 517L396 517L176 737L176 1188L396 1408L1232 1408L1232 1111L1155 1034L550 1034L550 891L1012 891L1232 671L1232 220L1012 0"/></g><g transform="translate(12672 0)"/><g transform="translate(14080 0)"><path d="M1232 0L176 0L176 374L693 374L693 374L693 880L583 770L319 1034L693 1408L1067 1408L1067 374L1232 374L1232 0"/></g><g transform="translate(15488 0)"><path d="M550 0L176 0L176 374L550 374L550 0"/></g><g transform="translate(16192 0)"><path d="M693 220L176 220L176 594L583 1408L1001 1408L594 594L693 594L693 759L1067 946L1067 594L1232 594L1232 220L1067 220L1067 0L693 0L693 220"/></g></g>
	<g transform="translate(0-2048)"><g transform="translate(0 0)"><path d="M1232 0L176 0L176 374L242 374L759 1408L1177 1408L1177 374L1232 374L1232 0M803 660L660 374L803 374L803 660"/></g><g transform="translate(1408 0)"><g><path d="M1232 0L176 0L176 1408L1078 1408L1078 1034L550 1034L550 891L924 891L924 517L550 517L550 374L1232 374L1232 0"/></g></g><g transform="translate(2816 0)"><path d="M550 0L176 0L176 1408L550 1408L550 814L858 1122L858 1408L1232 1408L1232 0L858 0L858 594L550 286L550 0"/></g><g transform="translate(4224 0)"><path d="M396 0L176 220L176 1133L396 1353L693 1353L693 1540L1067 1540L1067 1353L1364 1353L1584 1133L1584 220L1364 0L1067 0L1067 -187L693 -187L693 0L396 0M550 979L550 374L693 374L693 979L550 979M1067 979L1067 374L1210 374L1210 979L1067 979"/></g><g transform="translate(5984 0)"><g><path d="M396 0L176 220L176 1188L396 1408L1012 1408L1232 1188L1232 220L1012 0L396 0M550 1034L550 374L858 374L858 1034L550 1034"/></g></g><g transform="translate(7392 0)"><path d="M1012 0L176 0L176 1408L1122 1408L1122 1034L550 1034L550 891L1012 891L1232 671L1232 220L1012 0M550 517L550 374L858 374L858 517L550 517"/></g></g>
	<g transform="translate(0-4096)"><g transform="translate(0 0)"><path d="M1232 0L176 0L176 462L649 1408L759 1408L1232 462L1232 0M704 682L550 374L858 374L704 682"/></g><g transform="translate(1408 0)"><path d="M550 0L176 0L176 1408L550 1408L550 968L858 968L858 1408L1232 1408L1232 0L858 0L858 594L550 594L550 0"/></g><g transform="translate(2816 0)"><g transform="translate(352 0)"><g><path d="M1232 0L176 0L176 374L517 374L517 1034L330 1034L330 1408L1078 1408L1078 1034L891 1034L891 374L1232 374L1232 0"/></g></g><g transform="translate(-88 0)"><path d="M484 1144L220 880L220 1540L484 1540L484 1144"/></g></g><g transform="translate(4510 0)"><path d="M396 220L176 440L176 968L396 1188L517 1188L517 1408L891 1408L891 1188L1012 1188L1232 968L1232 440L1012 220L891 220L891 0L517 0L517 220L396 220M550 814L550 594L858 594L858 814L550 814"/></g><g transform="translate(5918 0)"><path d="M396 0L176 220L176 1100L484 1408L924 1408L1232 1100L1232 220L1012 0L396 0M550 946L550 374L858 374L858 946L770 1034L638 1034L550 946"/></g><g transform="translate(7326 0)"><path d="M1012 0L176 0L176 1408L1012 1408L1232 1188L1232 924L1111 803L1232 682L1232 220L1012 0M550 528L550 374L858 374L858 528L550 528M550 1034L550 770L814 1034L550 1034"/></g><g transform="translate(8734 0)"><path d="M396 0L176 220L176 1100L484 1408L924 1408L1232 1100L1232 220L1012 0L396 0M550 946L550 374L858 374L858 946L770 1034L638 1034L550 946"/></g><g transform="translate(10142 0)"><path d="M1232 0L176 0L176 374L506 704L176 1034L176 1408L1232 1408L1232 1034L704 1034L1034 704L704 374L1232 374L1232 0"/></g></g>
	<g transform="translate(0-6144)"><g transform="translate(0 0)"><path d="M550 0L176 0L176 88L836 1408L924 1408L1584 88L1584 0L1210 0L880 660L550 0"/></g><g transform="translate(1562 0)"><path d="M1232 517L176 517L176 891L1232 891L1232 517M605 957L473 1089L473 1276L605 1408L803 1408L935 1276L935 1089L803 957L605 957M605 0L473 132L473 319L605 451L803 451L935 319L935 132L803 0L605 0"/></g><g transform="translate(2970 0)"><path d="M924 0L176 374L176 550L484 704L176 858L176 1034L924 1408L1232 1408L1232 1144L836 946L1232 748L1232 660L836 462L1232 264L1232 0L924 0"/></g><g transform="translate(4378 0)"><path d="M770 0L176 0L176 374L396 374L396 1034L176 1034L176 1408L770 1408L770 891L990 891L990 1408L1584 1408L1584 1034L1364 1034L1364 374L1584 374L1584 0L990 0L990 517L770 517L770 0"/></g><g transform="translate(6138 0)"><path d="M396 770L209 957L209 1221L396 1408L660 1408L847 1221L847 957L660 770L396 770M396 0L209 187L209 451L396 638L660 638L847 451L847 187L660 0L396 0"/></g><g transform="translate(7194 0)"><path d="M539 0L176 363L176 1045L539 1408L1221 1408L1584 1045L1584 363L1221 0L539 0M693 1034L550 891L1210 891L1067 1034L693 1034M1210 517L550 517L693 374L1067 374L1210 517"/></g><g transform="translate(8954 0)"><path d="M396 770L209 957L209 1221L396 1408L660 1408L847 1221L847 957L660 770L396 770M396 0L209 187L209 451L396 638L660 638L847 451L847 187L660 0L396 0"/></g><g transform="translate(10010 0)"><path d="M484 0L176 308L176 1100L484 1408L1276 1408L1584 1100L1584 308L1276 0L484 0M550 946L550 462L638 374L1122 374L1210 462L1210 946L1122 1034L638 1034L550 946M693 891L693 517L1067 517L1067 891L693 891"/></g></g>
	<g transform="translate(17600-8192)"><g transform="translate(-1760 0)"><path d="M1584 0L-66 0L-66 374L176 374L176 660L396 880L726 880L902 1056L1364 1056L1584 836L1584 0M550 506L550 374L682 374L682 506L550 506M1056 682L1056 374L1210 374L1210 682L1056 682"/></g><g transform="translate(-3168 0)"><path d="M1408 0L-66 0L-66 374L176 374L176 660L396 880L1012 880L1232 660L1232 374L1408 374L1408 0M550 506L550 374L858 374L858 506L550 506"/>
			<path transform="translate(0 -528)" d="M1232 1540L176 1540L176 1804L594 1804L484 1914L858 1914L1232 1540"/>
		</g><g transform="translate(-4290 0)"><path d="M1408 0L-66 0L-66 374L517 374L517 638L176 1320L176 1408L550 1408L704 1100L858 1408L1232 1408L1232 1320L891 638L891 374L1408 374L1408 0"/></g><g transform="translate(-6028 0)"><path d="M1760 0L-66 0L-66 374L176 374L176 924L693 924L693 1408L1364 1408L1584 1188L1584 770L1364 550L1067 550L1067 374L1760 374L1760 0M550 550L550 374L693 374L693 550L550 550M1067 1034L1067 924L1210 924L1210 1034L1067 1034"/></g><g transform="translate(-7436 0)"><path d="M1408 0L-66 0L-66 374L858 374L858 682L176 682L176 1056L1232 1056L1232 374L1408 374L1408 0"/>
			<g transform="translate(0 -352)"><g transform="translate(0 506)"><path d="M891 1034L517 1034L517 1408L891 1408L891 1034"/></g></g>
		</g><g transform="translate(-8492 0)"><path d="M1056 0L-66 0L-66 374L176 374L176 1408L880 1408L880 1034L550 1034L550 902L880 902L880 528L550 528L550 374L1056 374L1056 0"/></g><g transform="translate(-9900 0)"><path d="M1408 0L-66 0L-66 374L176 374L176 1056L550 1056L550 374L858 374L858 1056L1232 1056L1232 374L1408 374L1408 0"/>
			<path transform="translate(0 -352)" d="M484 1540L176 1540L176 1606L484 1914L704 1914L814 1804L902 1804L1012 1914L1232 1914L1232 1760L1012 1540L704 1540L594 1650L484 1540"/>
		</g><g transform="translate(-11660 0)"><path d="M1760 0L176 0L176 1056L1584 1056L1584 374L1760 374L1760 0M550 682L550 374L1210 374L1210 682L550 682"/></g><g transform="translate(-13068 0)"/><g transform="translate(-14476 0)"><path d="M1232 0L176 0L176 374L429 374L429 1408L693 1408L1232 869L968 605L803 770L803 374L1232 374L1232 0"/></g><g transform="translate(-15180 0)"><path d="M550 0L176 0L176 374L550 374L550 0"/></g><g transform="translate(-16588 0)"><path d="M1232 0L176 0L176 1034L858 1034L858 1408L1232 1408L1232 660L550 660L550 374L1232 374L1232 0"/></g></g>
</g>
</svg>
