<?xml version="1.0" encoding="UTF-8"?>
<svg xmlns="http://www.w3.org/2000/svg" xmlns:svg="http://www.w3.org/2000/svg" viewBox="0 0 17600 2048">
  <g transform="translate(0 1464) scale(1 -1)">
	<path transform="translate(0 0)" d="M1012 0L176 0L176 1408L704 1408L1232 880L1232 220L1012 0M550 1034L550 374L858 374L858 726L550 1034"/>
	<path transform="translate(1408 0)" d="M1232 0L176 0L176 1408L1078 1408L1078 1034L550 1034L550 891L924 891L924 517L550 517L550 374L1232 374L1232 0"/>
	<path transform="translate(2816 0)" d="M1232 0L176 0L176 374L517 374L517 1034L330 1034L330 1408L1078 1408L1078 1034L891 1034L891 374L1232 374L1232 0"/>
	<path transform="translate(4224 0)" d="M550 0L176 0L176 1408L1012 1408L1232 1188L1232 572L1012 352L550 352L550 0M550 1034L550 726L858 726L858 1034L550 1034"/>
	<path transform="translate(5632 0)" d="M550 0L176 0L176 1408L550 1408L550 891L858 891L858 1408L1232 1408L1232 0L858 0L858 517L550 517L550 0"/>
	<path transform="translate(7040 0)" d="M396 0L176 220L176 1188L396 1408L1012 1408L1232 1188L1232 220L1012 0L396 0M550 1034L550 374L858 374L858 1034L550 1034"/>
	<path transform="translate(8448 0)" d="M1012 0L176 0L176 1408L1012 1408L1232 1188L1232 979L1122 869L1232 759L1232 220L1012 0M550 704L550 374L858 374L858 704L550 704M550 1034L550 726L858 1034L550 1034"/>
	<path transform="translate(9856 0)" d="M396 0L176 220L176 1408L550 1408L550 374L858 374L858 1408L1232 1408L1232 220L1012 0L396 0"/>
	<path transform="translate(11264 0)" d="M1012 0L176 0L176 374L858 374L858 517L396 517L176 737L176 1188L396 1408L1232 1408L1232 1111L1155 1034L550 1034L550 891L1012 891L1232 671L1232 220L1012 0"/>
	<path transform="translate(12672 0)" d=""/>
	<path transform="translate(14080 0)" d="M1232 0L176 0L176 374L693 374L693 374L693 880L583 770L319 1034L693 1408L1067 1408L1067 374L1232 374L1232 0"/>
	<path transform="translate(15488 0)" d="M550 0L176 0L176 374L550 374L550 0"/>
	<path transform="translate(16192 0)" d="M396 0L176 220L176 1034L550 1408L1012 1408L1232 1188L1232 374L858 0L396 0M550 880L550 374L704 374L858 528L858 1034L704 1034L550 880"/>
</g>
</svg>
